<?xml version="1.0" standalone="no"?>
<!DOCTYPE svg PUBLIC "-//W3C//DTD SVG 20010904//EN"
 "http://www.w3.org/TR/2001/REC-SVG-20010904/DTD/svg10.dtd">
<svg version="1.0" xmlns="http://www.w3.org/2000/svg"
 width="495.000000pt" height="495.000000pt" viewBox="0 0 495.000000 495.000000"
 preserveAspectRatio="xMidYMid meet">
<metadata>
Created by potrace 1.11, written by Peter Selinger 2001-2013
</metadata>
<g transform="translate(0.000000,495.000000) scale(0.100000,-0.100000)"
fill="#000000" stroke="none">
<path d="M3114 4939 c-2 -4 -37 -15 -77 -24 -73 -16 -151 -14 -186 5 -38 20
-76 17 -129 -10 -41 -21 -66 -27 -105 -25 -55 2 -58 3 -151 30 -87 25 -134 22
-161 -11 -15 -19 -32 -27 -61 -30 -22 -2 -52 -9 -67 -17 -15 -8 -42 -13 -60
-11 -138 16 -178 16 -197 -1 -32 -29 -16 -60 35 -69 27 -5 39 -14 49 -39 8
-18 15 -26 15 -19 1 7 8 20 15 28 13 12 17 12 34 -7 11 -11 23 -16 26 -11 3 5
28 21 55 35 41 22 59 25 110 22 97 -7 118 -27 88 -85 -8 -16 -21 -25 -37 -25
-32 0 -52 -13 -44 -27 5 -8 1 -9 -12 -4 -37 16 -49 12 -46 -13 4 -24 4 -24
-23 -7 l-28 18 7 -25 c9 -38 -12 -44 -40 -12 -22 26 -29 23 -25 -12 3 -22 -18
-23 -30 -1 -12 22 -12 22 -20 3 -4 -12 -1 -29 7 -43 13 -19 13 -23 0 -28 -8
-3 -25 4 -37 15 -31 29 -43 26 -23 -4 9 -14 18 -44 20 -67 3 -40 23 -78 25
-47 1 7 2 21 3 29 1 18 23 20 56 3 36 -18 41 -16 34 13 -4 17 -2 29 7 35 16 9
90 4 204 -16 105 -18 117 -5 31 35 -37 18 -66 34 -63 36 2 3 15 0 28 -5 13 -4
43 -11 66 -14 22 -4 53 -9 67 -13 37 -9 26 13 -29 56 -49 38 -59 63 -22 56 12
-2 60 -22 106 -45 80 -38 111 -48 111 -36 0 3 -19 31 -41 61 -23 30 -39 57
-36 60 3 3 37 -25 76 -61 68 -65 71 -69 71 -114 0 -33 6 -54 20 -69 23 -25 26
-57 6 -65 -7 -3 -27 -29 -44 -59 -53 -92 -147 -178 -193 -178 -20 0 -38 -21
-44 -50 -2 -13 -6 -24 -7 -26 -9 -8 -66 -10 -85 -3 -35 13 -50 2 -63 -46 -17
-59 -28 -67 -89 -61 -36 4 -53 2 -55 -7 -2 -7 -9 -30 -15 -52 -12 -44 -43 -85
-79 -104 -30 -16 -33 -12 -36 39 -3 45 11 62 29 37 7 -10 18 -17 25 -17 11 0
9 61 -4 130 -20 101 -25 160 -15 160 12 0 34 -37 54 -93 15 -39 20 -45 28 -32
13 24 12 103 -1 150 -13 45 -50 89 -102 124 -40 27 -110 99 -110 113 0 4 14 1
31 -7 17 -9 35 -15 41 -13 17 6 -49 74 -84 88 -79 29 -107 43 -112 56 -3 8 1
14 10 14 9 0 14 6 12 12 -8 24 -63 47 -127 53 -36 3 -69 9 -74 12 -4 3 2 16
15 30 l23 25 -47 -3 c-26 -2 -50 -1 -53 2 -2 3 12 23 31 45 50 53 82 104 88
137 6 36 -4 34 -34 -7 -25 -34 -92 -81 -189 -133 -29 -15 -71 -48 -93 -73 -21
-25 -46 -53 -55 -62 -8 -9 -29 -20 -47 -24 -41 -8 -191 -81 -207 -101 -7 -8
-12 -30 -11 -48 2 -20 -3 -35 -11 -38 -7 -3 -42 -27 -77 -54 -36 -27 -85 -59
-110 -72 -91 -47 -140 -141 -73 -141 16 0 39 -15 65 -42 l41 -43 -41 -3 c-69
-5 -132 45 -132 106 0 10 -6 27 -14 37 -12 17 -14 16 -18 -14 -3 -18 3 -48 14
-72 24 -54 23 -57 -12 -61 l-30 -3 22 -32 c41 -58 128 -66 201 -17 46 31 70
33 96 10 16 -15 45 -24 82 -25 9 -1 19 -11 23 -23 5 -19 8 -21 16 -8 9 13 12
13 24 -3 10 -13 21 -17 35 -12 24 7 26 23 10 59 -20 44 -5 69 67 109 37 20 73
37 80 37 8 0 14 5 14 10 0 6 10 10 22 10 17 0 19 3 10 12 -6 6 -29 11 -52 10
-22 -1 -40 0 -40 3 0 3 38 23 85 44 77 37 105 60 73 62 -31 1 -71 8 -75 13
-11 11 105 32 200 35 28 1 20 14 -38 55 -61 44 -60 58 4 60 46 1 85 -23 116
-72 11 -17 34 -38 51 -46 51 -25 89 -72 113 -140 26 -75 25 -111 -4 -111 -21
0 -23 -14 -9 -70 8 -35 9 -100 1 -135 -14 -66 -21 -86 -33 -100 -12 -15 -18
-57 -15 -108 0 -15 9 -26 21 -29 31 -8 21 -38 -12 -36 -26 2 -27 0 -33 -71 -9
-97 -15 -105 -57 -82 -57 31 -71 44 -64 61 4 12 13 15 35 10 34 -7 44 3 27 28
-13 17 -79 49 -93 45 -14 -3 -77 14 -90 24 -14 11 -18 47 -5 49 4 1 23 3 42 3
44 3 51 27 13 46 -15 7 -56 14 -90 16 -54 3 -123 25 -123 39 0 3 23 4 50 4 28
-1 53 1 56 3 2 3 -12 13 -32 23 -29 13 -49 16 -88 10 -28 -4 -63 -7 -79 -7
-31 0 -87 20 -87 32 0 4 21 13 48 20 77 20 80 21 57 30 -11 4 -38 6 -60 5 -38
-2 -63 -12 -160 -64 -41 -22 -95 -28 -95 -11 0 10 19 19 95 50 29 11 29 12 10
26 -42 31 -113 10 -180 -53 -42 -40 -84 -65 -97 -57 -12 8 10 45 45 77 16 15
28 30 24 33 -11 11 -86 -35 -179 -109 -52 -42 -98 -77 -102 -77 -3 0 -6 11 -6
25 0 16 14 40 35 62 40 42 40 41 19 64 -15 16 -14 19 5 40 46 49 47 153 2 193
-17 16 -19 14 -30 -31 -18 -71 -44 -125 -89 -185 -26 -33 -47 -77 -58 -118
-17 -62 -38 -102 -135 -255 -40 -63 -44 -75 -45 -135 0 -44 -7 -81 -22 -113
-12 -27 -24 -69 -27 -94 -3 -24 -10 -54 -16 -64 -28 -53 -4 -158 34 -151 10 2
33 -6 51 -17 28 -18 35 -19 45 -7 12 14 -3 39 -31 49 -10 3 -10 7 -1 17 9 10
9 18 1 33 -8 16 -7 23 4 31 10 7 14 22 11 42 -4 25 1 36 24 55 17 14 29 33 27
43 -1 9 3 15 9 13 20 -6 -3 -277 -23 -277 -5 0 -11 -9 -15 -19 -7 -22 -58 -46
-94 -43 -13 1 -35 9 -47 17 -12 7 -24 11 -28 8 -10 -10 14 -44 46 -63 l31 -19
-26 -6 c-41 -11 -35 -37 6 -30 65 12 127 71 152 145 1 3 4 12 8 20 7 19 15 58
22 104 3 20 7 52 10 72 6 44 23 76 35 69 5 -3 7 -12 4 -19 -3 -7 3 -16 12 -20
16 -6 15 -8 -5 -22 -17 -12 -19 -19 -11 -29 8 -9 8 -15 0 -20 -17 -11 -11 -24
15 -31 26 -7 35 -38 13 -47 -10 -4 -10 -7 0 -15 16 -11 5 -42 -14 -42 -14 0
-20 -29 -6 -31 10 -2 39 -6 99 -13 55 -7 120 14 108 35 -4 5 -10 7 -15 4 -4
-3 -15 -2 -24 1 -12 5 -13 10 -3 31 10 22 8 27 -22 50 -48 38 -39 60 77 193
40 45 25 50 -38 11 -28 -17 -53 -31 -56 -31 -8 0 12 33 34 56 19 20 52 76 52
89 0 14 -28 2 -59 -25 -34 -30 -55 -32 -44 -5 3 8 8 15 12 15 6 0 133 88 158
110 7 5 24 15 37 22 34 15 22 31 -18 24 -17 -3 -49 -8 -71 -12 -22 -3 -43 -8
-47 -10 -4 -2 -9 0 -13 6 -3 5 3 10 13 10 29 0 90 28 114 52 15 15 35 21 72
23 28 1 65 9 83 18 55 29 93 28 150 -4 37 -20 60 -27 81 -23 32 6 46 -6 56
-48 4 -19 15 -30 34 -34 35 -9 102 -42 120 -61 14 -13 13 -49 -2 -84 -5 -12 4
-19 41 -30 43 -12 50 -19 61 -54 8 -22 15 -57 16 -77 1 -28 11 -46 35 -70 45
-44 54 -71 37 -111 -7 -18 -23 -41 -33 -53 l-20 -20 67 -32 c53 -25 70 -39 81
-64 18 -45 19 -55 7 -89 -8 -25 -7 -38 9 -72 24 -49 40 -99 48 -145 15 -87 76
-205 158 -307 45 -54 53 -90 19 -78 -27 10 -149 110 -222 182 -80 79 -136 153
-182 241 -41 78 -56 133 -63 232 -8 110 -14 137 -47 206 -43 88 -77 107 -144
82 l-27 -11 33 -28 c24 -20 32 -33 27 -45 -4 -10 -10 -16 -15 -14 -109 56
-130 62 -194 63 -56 0 -70 -3 -82 -20 -23 -30 -19 -43 16 -50 75 -15 89 -28
43 -39 -13 -3 -33 -15 -43 -26 -10 -11 -34 -22 -54 -24 -51 -7 -68 -20 -110
-84 -43 -66 -37 -84 20 -58 21 9 46 18 57 20 18 3 105 -51 105 -65 0 -3 13
-12 30 -19 16 -7 30 -16 30 -21 0 -5 6 -9 13 -9 7 0 33 -19 58 -42 106 -99
138 -201 94 -306 -16 -38 -16 -46 -3 -85 8 -23 17 -48 19 -55 2 -8 -5 -19 -16
-25 -11 -6 -31 -18 -43 -25 l-24 -14 23 -16 c41 -28 115 -15 169 30 31 26 51
70 56 126 4 31 11 60 17 64 7 4 29 -20 56 -60 127 -190 317 -342 529 -423 73
-28 102 -51 102 -81 0 -24 -64 -88 -88 -88 -12 0 -13 -3 -5 -11 25 -25 99 -7
160 38 34 26 112 135 162 228 18 33 42 71 54 83 22 24 68 52 85 52 6 0 10 -39
10 -87 1 -94 29 -222 58 -270 10 -15 32 -50 50 -78 77 -116 40 -158 -191 -217
-177 -46 -356 -24 -520 61 -55 29 -136 109 -163 162 -30 57 -37 66 -99 117
-65 54 -109 60 -155 22 -22 -19 -29 -32 -25 -44 4 -9 12 -16 19 -15 7 1 20 1
27 0 26 -2 -4 -22 -40 -27 -19 -3 -45 -7 -59 -9 -54 -9 -104 -93 -77 -129 10
-14 17 -14 44 -4 26 10 35 10 45 0 17 -17 3 -38 -53 -80 -74 -56 -88 -102 -52
-167 8 -13 12 -12 33 10 27 28 55 32 68 9 14 -25 45 -23 75 4 32 31 77 33 152
7 116 -39 160 -86 164 -179 2 -27 4 -58 6 -69 3 -10 7 -43 10 -71 6 -49 4 -54
-25 -83 l-31 -31 48 0 c66 0 113 31 146 95 20 37 26 68 32 158 6 86 21 119 50
110 92 -27 146 -40 220 -51 37 -5 220 -5 260 0 17 3 50 7 75 10 25 3 56 8 70
11 14 2 49 10 77 16 29 5 55 10 58 10 2 0 22 6 43 13 45 16 57 12 72 -29 15
-39 4 -91 -23 -110 -21 -15 -21 -15 -1 -15 35 0 100 54 117 97 8 22 16 64 16
94 2 321 17 406 75 444 35 23 69 10 96 -37 18 -32 23 -58 25 -131 4 -115 3
-109 15 -102 6 3 10 -4 10 -17 -1 -20 -35 -197 -44 -223 -1 -5 -6 -23 -11 -40
-4 -16 -25 -64 -46 -106 -61 -117 -179 -224 -348 -312 -79 -41 -255 -112 -298
-120 -10 -2 -38 -9 -63 -16 -25 -7 -55 -15 -67 -17 -13 -2 -33 -6 -45 -8 -27
-6 -87 -15 -143 -22 -22 -3 -113 -6 -203 -8 -241 -4 -294 14 -598 196 -78 47
-163 91 -190 98 -60 17 -136 64 -189 119 -21 22 -45 41 -52 41 -7 0 -13 7 -13
15 0 8 5 15 10 15 6 0 10 4 10 8 0 10 -60 79 -119 138 -24 24 -38 44 -32 44
23 0 9 23 -44 76 -31 31 -53 59 -50 64 3 4 -16 27 -42 50 -36 31 -42 41 -26
37 39 -9 35 9 -12 61 -26 29 -41 53 -35 57 17 10 12 19 -35 70 -24 27 -40 52
-35 55 6 4 5 22 -3 51 -12 42 -27 55 -92 82 -5 2 -7 8 -3 12 4 4 23 -2 42 -13
37 -22 65 -29 161 -38 33 -4 61 -7 62 -8 2 -2 -6 -12 -17 -24 -11 -12 -20 -24
-20 -27 0 -9 74 6 105 22 31 16 115 81 127 98 16 23 19 -7 4 -45 -9 -22 -16
-45 -16 -50 0 -16 67 29 105 71 42 47 56 79 57 131 0 21 4 38 8 38 5 0 22 -28
38 -62 l29 -62 17 51 c28 83 23 137 -20 226 -25 54 -34 81 -27 88 7 7 13 7 17
0 4 -6 14 -11 22 -11 37 0 -1 135 -55 192 -22 24 -27 34 -16 36 11 3 12 8 3
30 -29 68 -88 99 -198 106 -36 2 -67 5 -70 6 -12 4 38 19 65 19 23 1 26 4 17
14 -18 17 -188 14 -209 -3 -2 -2 -6 -3 -10 -4 -5 -1 -14 -5 -20 -9 -8 -5 -13
-3 -13 7 0 8 5 18 10 21 17 10 11 32 -8 30 -41 -5 -111 -39 -145 -70 -62 -59
-109 -172 -100 -240 7 -58 25 -125 34 -131 5 -3 9 -14 9 -25 0 -12 5 -19 13
-17 6 3 12 11 12 19 0 8 6 15 13 15 6 1 16 2 21 3 5 0 7 18 4 39 -4 30 1 45
26 79 19 27 36 40 45 37 13 -5 40 27 41 48 0 15 15 19 33 9 15 -8 23 -6 37 9
16 18 19 18 30 3 11 -15 14 -15 43 2 29 18 62 13 34 -4 -19 -12 12 -34 36 -27
11 4 29 -2 45 -14 14 -11 31 -20 39 -20 7 -1 3 -6 -9 -13 -33 -18 -12 -44 42
-53 46 -6 63 -18 46 -28 -5 -4 -12 -2 -16 4 -4 6 -11 8 -16 4 -5 -3 -7 -10 -3
-15 3 -6 8 -42 10 -80 3 -56 0 -78 -16 -110 -24 -47 -84 -103 -113 -106 -59
-7 -123 -20 -134 -26 -21 -13 -127 45 -155 83 -15 20 -43 45 -64 56 -38 19
-50 35 -76 102 -7 17 -16 32 -19 32 -4 0 -7 12 -7 28 0 44 -15 172 -27 228 -5
23 -3 33 8 37 16 6 16 33 -2 79 -6 15 -4 32 4 48 7 14 14 46 16 70 1 25 6 55
11 68 9 26 10 26 -37 6 -20 -8 -55 -17 -78 -19 -65 -7 -71 -19 -73 -147 -2
-86 3 -137 20 -215 23 -101 20 -141 -6 -115 -19 19 -38 14 -38 -10 1 -44 35
-93 89 -129 77 -51 92 -89 35 -89 -36 0 -30 -14 33 -67 32 -26 69 -58 84 -71
14 -12 34 -29 45 -37 17 -13 15 -14 -16 -3 -19 6 -66 42 -105 80 -38 37 -73
68 -77 68 -5 0 -6 -15 -3 -32 14 -79 30 -123 64 -176 20 -31 42 -69 48 -84 13
-30 3 -38 -16 -14 -13 16 -71 39 -71 29 0 -9 42 -97 49 -103 3 -3 31 -34 61
-70 30 -35 63 -73 73 -83 25 -25 16 -31 -19 -13 -37 20 -42 12 -16 -24 12 -16
22 -32 22 -35 0 -4 7 -14 16 -22 23 -23 94 -119 94 -126 0 -4 -9 -7 -20 -7
-11 0 -20 -4 -20 -8 0 -4 50 -57 112 -117 88 -86 108 -111 93 -113 -11 -1 -31
-5 -44 -8 l-24 -5 24 -17 c13 -9 31 -22 39 -29 139 -111 212 -181 205 -192 -3
-6 -12 -8 -20 -4 -9 3 -15 -1 -15 -10 0 -17 70 -49 160 -72 36 -9 93 -30 128
-47 52 -24 61 -32 51 -44 -6 -8 -21 -14 -33 -14 -11 0 -28 -5 -36 -10 -25 -16
6 -35 95 -58 199 -50 301 -79 318 -88 15 -8 7 -15 -48 -42 -65 -33 -85 -61
-42 -63 12 0 36 -3 52 -7 43 -8 238 -8 323 2 39 4 72 5 72 2 0 -3 -18 -18 -40
-32 -24 -16 -40 -34 -38 -43 6 -31 250 -20 341 15 17 6 17 4 -2 -32 -25 -46
-27 -74 -6 -74 8 0 15 5 15 10 0 6 6 10 14 10 7 0 19 7 26 15 6 8 15 14 18 13
4 -1 23 6 42 15 19 9 73 30 120 47 47 18 99 39 115 49 59 34 63 33 58 -10 -6
-47 8 -51 58 -13 48 36 127 71 177 78 74 10 83 19 96 98 3 15 9 35 15 45 9 15
11 9 9 -27 -2 -39 1 -46 22 -57 32 -16 56 -8 105 35 51 45 86 102 91 148 4 42
32 90 44 78 5 -5 5 -27 0 -49 -19 -83 -4 -86 68 -15 53 53 95 129 107 192 8
40 25 43 25 4 0 -13 5 -38 11 -56 l12 -32 21 43 c28 57 48 90 65 108 33 35 54
106 53 170 -2 62 -1 63 17 47 12 -11 21 -38 26 -71 9 -79 26 -80 24 -3 -2 62
9 97 37 126 32 32 39 102 18 202 -11 54 11 25 34 -45 26 -81 45 -83 67 -8 22
76 26 144 10 196 -7 23 -15 62 -18 87 l-6 45 19 -23 c10 -12 20 -28 22 -34 2
-6 10 -8 16 -4 27 16 13 108 -37 238 -54 142 -57 177 -17 216 33 33 94 36 126
7 69 -62 97 -234 54 -332 -12 -29 -36 -70 -53 -90 -16 -21 -35 -50 -40 -65 -9
-25 -8 -28 9 -28 10 0 21 4 25 9 3 5 18 8 33 6 15 -2 32 -4 38 -4 24 -2 74
-62 84 -102 22 -80 -14 -158 -122 -269 -53 -55 -163 -152 -200 -179 -11 -7
-16 -16 -11 -20 21 -14 55 -84 56 -115 1 -46 -37 -94 -120 -149 -91 -60 -169
-94 -282 -122 -52 -13 -98 -28 -103 -33 -5 -5 -11 -32 -14 -60 -11 -124 -51
-160 -243 -221 -56 -18 -108 -34 -115 -35 -6 -2 -31 -8 -56 -15 -25 -7 -54
-15 -65 -17 -11 -2 -31 -6 -45 -9 -42 -10 -193 -35 -235 -39 -66 -7 -138 -17
-165 -21 -14 -3 -41 -7 -60 -11 -19 -3 -51 -7 -70 -9 -63 -5 -66 -6 -43 -15
69 -28 486 -31 573 -5 8 2 32 6 52 9 21 2 41 7 45 9 4 3 24 8 43 11 19 3 89
21 155 41 66 19 127 37 135 39 56 14 302 119 416 177 149 76 259 144 398 247
320 237 555 523 683 831 42 101 83 226 98 301 2 8 8 35 13 60 6 25 13 63 16
85 4 23 8 51 11 64 20 103 26 367 11 494 -8 77 -8 75 -31 176 -9 40 -18 78
-20 85 -1 6 -5 19 -9 28 -4 9 -9 23 -10 32 -1 8 -5 19 -9 22 -4 4 -7 13 -7 20
0 13 -20 61 -77 181 -27 59 -121 206 -134 211 -5 2 -9 8 -9 13 0 24 -205 232
-295 299 -33 25 -61 48 -63 53 -2 4 -8 7 -12 7 -5 0 -28 13 -52 29 -38 26 -64
41 -173 101 -95 52 -306 126 -420 145 -16 3 -37 8 -45 10 -40 11 -137 18 -255
20 -343 3 -537 -70 -758 -289 -37 -36 -67 -68 -67 -71 0 -2 8 -2 18 0 151 32
164 33 197 22 43 -14 136 -204 140 -285 5 -105 -99 -197 -186 -163 -29 10 -59
-2 -59 -24 0 -11 -12 -15 -42 -15 -37 0 -46 5 -93 55 l-52 56 -18 -40 c-10
-22 -26 -43 -36 -46 -25 -8 -72 21 -93 55 -25 43 -20 53 16 34 42 -22 88 -35
88 -25 0 4 -19 27 -42 51 -48 48 -88 100 -88 112 0 5 17 0 39 -11 21 -11 41
-18 44 -15 2 3 -8 43 -24 89 -29 88 -30 127 -2 157 20 22 23 19 29 -28 5 -37
22 -69 32 -59 3 3 6 22 7 43 7 123 26 207 46 207 14 0 16 -4 18 -56 1 -28 3
-30 17 -18 21 17 35 55 39 104 2 22 4 43 4 46 1 4 24 19 52 34 45 23 51 24 44
8 -4 -10 -12 -34 -17 -53 -6 -19 -15 -41 -20 -47 -8 -10 -6 -13 6 -13 25 0 57
37 100 115 40 71 67 105 86 105 14 0 13 -11 -5 -53 -8 -20 -15 -44 -15 -54 1
-31 78 64 112 138 47 99 94 120 76 33 -6 -25 -7 -48 -4 -51 9 -9 45 27 62 62
13 27 17 41 27 90 7 30 31 74 43 79 15 6 15 -13 -1 -92 -7 -36 10 -25 32 21
23 47 29 68 39 142 3 27 10 58 14 70 7 19 9 18 19 -8 6 -16 11 -34 11 -40 1
-7 7 -23 14 -37 l14 -25 7 35 c11 61 9 122 -9 214 -9 48 -15 90 -13 92 2 3 19
-12 36 -32 35 -39 37 -39 42 -9 5 37 -36 109 -84 145 -51 39 -82 86 -50 77 10
-2 26 -8 36 -12 10 -4 17 -3 17 4 0 20 -60 78 -92 91 -18 7 -42 16 -53 20 -11
4 -40 13 -64 20 -71 19 -23 34 140 45 42 3 98 12 124 19 50 15 120 59 128 80
5 14 -21 18 -29 5z m-721 -74 c41 -11 32 -20 -23 -22 -34 -1 -50 3 -50 11 0
27 12 28 73 11z m-343 -56 c11 0 9 -3 -4 -8 -26 -10 -82 -1 -65 10 8 5 23 7
34 4 11 -2 27 -5 35 -6z m-859 -387 c-13 -9 -42 -27 -63 -40 -34 -21 -39 -21
-44 -7 -4 9 -1 22 5 28 15 15 65 32 100 34 l26 2 -24 -17z m-22 -149 c-25 -34
-47 -58 -147 -162 -86 -90 -102 -102 -114 -90 -19 19 -27 54 -17 70 6 10 9 11
9 2 0 -7 7 -13 15 -13 16 0 19 8 16 58 -2 38 15 42 31 7 16 -34 31 -31 26 5
-5 32 15 43 26 15 10 -26 24 -17 52 33 38 67 64 92 92 92 22 0 23 -2 11 -17z
m-303 -118 c-27 -25 -51 -43 -54 -41 -9 10 25 61 48 73 51 26 54 11 6 -32z
m292 -36 c-13 -23 -32 -47 -43 -53 -11 -6 -23 -15 -27 -21 -26 -38 -38 -47
-65 -50 -28 -2 -64 9 -53 17 3 2 28 22 55 43 49 39 60 48 120 99 38 33 43 18
13 -35z m-803 -666 c-36 -47 -42 -63 -47 -118 l-3 -30 -16 30 c-18 36 -18 41
4 81 17 33 71 84 88 84 6 0 -6 -21 -26 -47z"/>
<path d="M1804 4798 c-9 -26 -10 -33 -13 -68 -2 -25 -2 -24 -35 13 -18 20 -36
37 -40 37 -3 0 -6 -16 -6 -35 0 -26 8 -43 28 -62 99 -93 170 -103 296 -39 103
52 141 64 191 58 88 -10 100 -8 103 15 7 48 -112 39 -233 -18 -36 -17 -71 -32
-78 -33 -7 -1 -17 -5 -23 -8 -5 -4 -36 -6 -67 -5 -46 2 -62 7 -83 28 -26 27
-35 74 -20 117 4 13 3 22 -3 22 -5 0 -13 -10 -17 -22z"/>
<path d="M3106 4793 c-3 -3 -27 -7 -55 -8 -62 -4 -74 -11 -65 -38 15 -48 64
-84 117 -86 16 -1 16 -3 2 -25 -18 -27 -7 -41 23 -32 52 16 76 15 89 -4 11
-16 56 -32 95 -35 11 0 22 -15 12 -16 -5 0 -18 -2 -29 -4 -11 -2 -40 -7 -65
-10 -53 -7 -110 -22 -128 -33 -10 -7 -8 -14 8 -35 23 -29 18 -49 -25 -97 -13
-14 -32 -43 -44 -65 -18 -34 -19 -40 -6 -43 8 -2 15 -7 16 -10 0 -4 2 -14 3
-22 2 -8 6 -40 9 -71 4 -30 16 -81 28 -113 19 -49 24 -56 34 -42 7 9 16 16 20
16 5 0 31 -25 58 -56 52 -57 85 -79 126 -85 20 -3 26 1 31 21 4 17 12 24 26
23 10 -1 39 -5 64 -8 25 -4 56 -8 70 -9 14 -2 41 -7 60 -11 29 -6 33 -5 23 6
-19 19 -16 56 5 71 52 36 131 112 126 119 -3 5 -10 7 -15 4 -13 -9 -11 2 10
43 30 59 41 109 27 121 -7 6 -17 6 -26 1 -23 -15 -38 -12 -45 9 -15 48 -62 76
-142 87 l-33 4 22 -37 c25 -44 30 -158 9 -208 l-13 -30 -12 24 -13 23 -23 -37
c-22 -36 -24 -37 -64 -30 -23 4 -57 9 -76 10 -19 2 -38 4 -42 4 -4 1 -5 7 -2
15 3 8 -3 17 -14 20 -22 7 -44 53 -44 89 0 13 7 39 15 58 9 19 17 45 19 59 2
17 8 24 20 22 9 -1 26 11 39 29 20 28 24 30 34 15 15 -20 39 -21 55 -1 9 11
22 14 42 9 17 -3 49 -7 73 -8 24 -1 49 -7 57 -13 7 -6 36 -15 63 -19 28 -4 53
-9 58 -10 4 -1 14 -2 22 -3 13 -1 14 -5 5 -21 -11 -21 -11 -21 33 -24 19 -1
22 -7 25 -43 3 -36 9 -48 43 -75 l40 -32 -27 -14 c-34 -18 -25 -25 64 -52 40
-13 85 -33 100 -44 l26 -21 -39 -11 c-49 -13 -58 -39 -18 -55 63 -24 153 -72
153 -81 0 -5 -12 -9 -27 -8 -16 1 -34 2 -42 1 -24 -2 6 -28 103 -91 94 -61
154 -114 139 -123 -5 -3 -23 -4 -41 -3 -18 1 -35 -1 -37 -5 -5 -7 55 -69 114
-118 33 -26 39 -36 30 -47 -6 -8 -16 -11 -21 -8 -29 18 32 -66 87 -120 62 -61
82 -95 50 -82 -24 9 -18 -9 21 -60 39 -51 74 -105 74 -115 0 -4 -9 -9 -20 -12
-18 -5 -16 -13 36 -124 99 -212 106 -230 155 -374 35 -106 64 -220 74 -293 5
-34 15 -47 16 -20 6 151 -2 453 -17 684 -6 89 -11 174 -13 225 l-2 30 -38 -45
c-55 -63 -54 -63 -65 120 -4 58 -8 114 -10 125 -3 11 -5 27 -6 35 -1 8 -10 -9
-21 -39 -10 -30 -21 -56 -24 -59 -8 -9 -23 44 -29 104 -12 122 -14 136 -19
141 -3 3 -14 -12 -24 -32 -19 -39 -37 -48 -39 -17 0 9 -4 28 -7 42 -4 14 -8
39 -11 55 -4 27 -13 68 -32 158 -7 32 -20 35 -29 6 -11 -33 -27 -17 -58 57
-16 38 -41 96 -54 129 -26 61 -53 101 -53 77 0 -20 -2 -26 -12 -46 -10 -18
-12 -18 -26 10 -9 16 -17 31 -17 34 -1 3 -5 14 -10 25 -4 11 -23 60 -41 108
-32 85 -63 142 -65 122 -1 -6 -3 -26 -5 -45 -3 -19 -5 -41 -6 -47 -1 -7 -5
-13 -9 -13 -12 0 -64 67 -103 133 -45 77 -107 159 -124 165 -7 2 -12 0 -11 -5
5 -29 -3 -72 -14 -76 -14 -5 -25 3 -131 96 -72 64 -96 81 -97 70 -1 -4 0 -25
1 -45 1 -22 -3 -38 -9 -38 -12 0 -113 51 -121 61 -3 4 -14 9 -25 12 -16 4 -14
5 7 6 48 2 57 10 47 39 -10 29 -10 29 -172 104 -70 32 -125 51 -160 54 -28 3
-60 6 -69 8 -9 2 -19 2 -22 -1z"/>
</g>
</svg>
