<?xml version="1.0" standalone="no"?>
<!DOCTYPE svg PUBLIC "-//W3C//DTD SVG 20010904//EN"
 "http://www.w3.org/TR/2001/REC-SVG-20010904/DTD/svg10.dtd">
<svg version="1.0" xmlns="http://www.w3.org/2000/svg"
 width="1745.000000pt" height="201.000000pt" viewBox="0 0 1745.000000 201.000000"
 preserveAspectRatio="xMidYMid meet">
<metadata>
Created by potrace 1.15, written by Peter Selinger 2001-2017
</metadata>
<g transform="translate(0.000000,201.000000) scale(0.100000,-0.100000)"
fill="#000000" stroke="none">
<path d="M70 1979 c31 -10 72 -33 93 -50 l37 -30 0 -896 0 -896 -35 -32 c-19
-18 -60 -42 -92 -53 l-58 -20 440 -1 c242 -1 481 4 530 9 179 21 383 92 511
181 77 52 169 145 224 225 102 148 155 315 170 541 12 169 0 283 -41 408 -112
337 -335 532 -699 612 -63 13 -160 16 -605 19 l-530 3 55 -20z m940 -94 c333
-50 561 -257 642 -580 18 -73 22 -119 22 -245 1 -174 -12 -243 -69 -366 -123
-269 -411 -500 -700 -561 -48 -10 -111 -13 -200 -11 -138 4 -200 21 -252 70
l-23 21 0 778 0 778 28 19 c138 97 330 131 552 97z"/>
<path d="M1920 1979 c47 -28 89 -68 106 -101 12 -23 14 -165 14 -878 0 -713
-2 -855 -14 -878 -17 -33 -59 -73 -106 -101 l-35 -21 280 0 c257 0 277 2 249
16 -49 24 -100 71 -118 108 -14 30 -16 88 -16 470 l0 436 550 0 550 0 0 -422
c0 -254 -4 -438 -10 -459 -11 -40 -70 -103 -122 -131 -32 -17 -26 -17 247 -17
l280 0 -36 19 c-48 25 -99 76 -115 117 -20 48 -20 1678 0 1726 16 41 67 92
115 117 l36 19 -280 0 c-273 0 -279 0 -247 -17 52 -28 111 -91 122 -131 6 -21
10 -172 10 -358 l0 -323 -550 0 -550 0 0 336 c0 290 2 341 16 370 18 37 69 84
118 108 28 14 8 16 -249 16 l-280 0 35 -21z"/>
<path d="M4160 1991 l-225 -6 47 -28 c26 -15 60 -44 75 -64 l28 -36 3 -846 c1
-465 0 -856 -3 -868 -8 -32 -54 -83 -104 -115 l-45 -28 275 0 274 0 -35 21
c-47 28 -89 68 -106 101 -11 22 -14 95 -14 379 l0 352 78 -6 c142 -10 285 -70
397 -168 21 -19 71 -83 110 -144 151 -232 331 -427 456 -495 62 -34 68 -35
169 -35 112 1 199 20 241 53 l23 19 -70 5 c-193 15 -361 162 -639 558 -48 69
-108 149 -134 179 -25 29 -57 66 -69 82 l-24 29 77 82 c122 130 204 292 221
441 9 75 -13 202 -47 273 -56 118 -186 209 -359 249 -86 21 -254 25 -600 16z
m512 -114 c160 -78 257 -261 258 -485 0 -169 -48 -285 -143 -349 -70 -47 -103
-53 -290 -53 l-168 0 3 428 c3 453 4 462 51 482 12 6 69 9 127 7 92 -2 112 -6
162 -30z"/>
<path d="M6189 1984 c-300 -54 -561 -237 -679 -477 -146 -295 -153 -714 -16
-985 120 -238 364 -417 674 -494 72 -18 115 -22 252 -22 151 0 173 3 254 28
337 103 597 357 688 671 20 71 23 101 23 260 -1 156 -4 192 -24 265 -102 380
-447 702 -811 760 -89 14 -269 11 -361 -6z m141 -984 l0 -890 -30 0 -30 0 0
884 c0 834 1 885 18 889 9 3 23 5 30 6 9 1 12 -183 12 -889z m149 884 l31 -6
0 -889 0 -889 -40 0 -40 0 0 895 c0 505 4 895 9 895 5 0 23 -3 40 -6z m-269
-889 l0 -865 -67 25 c-193 73 -345 223 -422 417 -59 146 -66 192 -65 433 0
251 11 311 84 464 60 125 124 204 228 278 59 43 202 113 230 113 9 0 12 -180
12 -865z m485 814 c207 -101 347 -279 411 -525 35 -132 45 -408 20 -552 -42
-242 -159 -428 -335 -532 -63 -37 -173 -80 -206 -80 -13 0 -15 95 -15 871 l0
870 23 -6 c12 -4 58 -24 102 -46z"/>
<path d="M7590 1991 l-225 -6 47 -28 c26 -15 60 -44 75 -64 l28 -36 3 -846 c1
-465 0 -856 -3 -868 -8 -32 -54 -83 -104 -115 l-45 -28 275 0 274 0 -35 21
c-47 28 -89 68 -106 101 -11 22 -14 95 -14 379 l0 352 78 -6 c142 -10 285 -70
397 -168 21 -19 71 -83 110 -144 151 -232 331 -427 456 -495 62 -34 68 -35
169 -35 112 1 199 20 241 53 l23 19 -70 5 c-193 15 -361 162 -639 558 -48 69
-108 149 -134 179 -25 29 -57 66 -69 82 l-24 29 77 82 c122 130 204 292 221
441 9 75 -13 202 -47 273 -56 118 -186 209 -359 249 -86 21 -254 25 -600 16z
m512 -114 c160 -78 257 -261 258 -485 0 -169 -48 -285 -143 -349 -70 -47 -103
-53 -290 -53 l-168 0 3 428 c3 453 4 462 51 482 12 6 69 9 127 7 92 -2 112 -6
162 -30z"/>
<path d="M11570 1991 l-225 -6 47 -28 c26 -15 60 -44 75 -64 l28 -36 3 -846
c1 -465 0 -856 -3 -868 -8 -32 -54 -83 -104 -115 l-45 -28 275 0 274 0 -35 21
c-47 28 -89 68 -106 101 -11 22 -14 95 -14 379 l0 352 78 -6 c142 -10 285 -70
397 -168 21 -19 71 -83 110 -144 151 -232 331 -427 456 -495 62 -34 68 -35
169 -35 112 1 199 20 241 53 l23 19 -70 5 c-193 15 -361 162 -639 558 -48 69
-108 149 -134 179 -25 29 -57 66 -69 82 l-24 29 77 82 c122 130 204 292 221
441 9 75 -13 202 -47 273 -56 118 -186 209 -359 249 -86 21 -254 25 -600 16z
m512 -114 c160 -78 257 -261 258 -485 0 -169 -48 -285 -143 -349 -70 -47 -103
-53 -290 -53 l-168 0 3 428 c3 453 4 462 51 482 12 6 69 9 127 7 92 -2 112 -6
162 -30z"/>
<path d="M12832 1971 c49 -31 64 -51 88 -117 8 -22 133 -230 278 -461 l262
-420 0 -408 c0 -353 -2 -411 -16 -441 -19 -39 -74 -90 -118 -110 -27 -11 7
-13 254 -13 261 -1 282 1 254 15 -49 24 -100 71 -118 108 -14 30 -16 86 -16
445 l0 412 262 416 c144 229 268 434 275 455 20 59 43 88 92 120 l45 28 -280
0 c-273 -1 -278 -1 -246 -18 50 -27 110 -89 122 -128 11 -33 8 -40 -186 -369
-109 -184 -201 -335 -204 -335 -3 0 -94 151 -203 335 -192 325 -198 337 -187
369 11 36 66 93 120 125 l35 21 -279 0 -280 0 46 -29z"/>
<path d="M14565 1983 c44 -23 65 -43 89 -88 21 -39 21 -52 27 -605 5 -540 6
-569 27 -649 101 -384 392 -619 792 -638 231 -10 408 58 575 222 94 93 163
198 206 316 61 165 62 176 65 749 2 289 7 539 9 557 7 41 47 88 104 125 l45
28 -275 0 c-254 0 -272 -1 -244 -16 45 -23 76 -55 96 -99 17 -37 19 -76 19
-585 0 -580 -5 -663 -51 -815 -44 -145 -126 -262 -225 -320 -147 -86 -424 -85
-587 2 -146 79 -245 246 -293 493 -25 129 -33 1133 -10 1194 17 45 72 104 121
129 28 15 11 16 -245 16 -257 0 -273 -1 -245 -16z"/>
<path d="M16845 1984 c-147 -33 -284 -133 -341 -251 -26 -53 -29 -68 -29 -164
0 -104 1 -107 43 -192 51 -103 123 -183 375 -415 249 -228 322 -327 348 -467
25 -132 -45 -242 -206 -321 -76 -38 -82 -39 -179 -39 -126 1 -191 24 -270 96
-60 55 -89 106 -107 189 l-13 55 -12 -70 c-7 -38 -13 -114 -13 -167 -1 -95 0
-97 30 -127 154 -155 466 -145 716 22 128 86 209 194 237 317 31 136 13 255
-57 372 -64 106 -96 138 -399 397 -123 106 -218 218 -262 311 -60 126 -34 249
67 317 59 40 136 56 241 51 94 -4 142 -24 199 -81 42 -42 97 -148 97 -187 0
-56 19 3 40 125 12 72 24 140 27 152 4 17 -3 25 -34 41 -61 31 -138 44 -288
48 -102 3 -159 -1 -210 -12z"/>
<path d="M10180 1965 c-6 -16 -160 -424 -342 -905 -181 -481 -338 -891 -348
-910 -31 -60 -97 -112 -172 -135 -38 -12 -12 -14 232 -14 253 1 272 2 240 16
-47 20 -100 72 -100 98 0 11 47 160 103 330 l104 310 277 0 277 0 124 -320
c69 -176 125 -325 125 -331 0 -7 -10 -14 -22 -18 -31 -7 -106 -57 -112 -73 -4
-10 54 -13 302 -13 l307 0 -52 24 c-84 40 -141 99 -186 196 -49 106 -267 624
-529 1260 -110 267 -204 492 -208 500 -7 12 -11 9 -20 -15z m121 -753 l116
-327 -118 -3 c-65 -1 -174 -1 -242 0 l-125 3 121 328 c66 180 123 327 126 327
3 0 58 -148 122 -328z"/>
</g>
</svg>
